<svg width="470" height="187" viewBox="0 0 470 187" fill="none" xmlns="http://www.w3.org/2000/svg">
<g filter="url(#filter0_d_4762_109026)">
<path d="M28.3018 55.6893C28.3018 38.1042 42.5573 23.8486 60.1425 23.8486H404.857C422.442 23.8486 436.698 38.1042 436.698 55.6894V120.782C436.698 138.367 422.442 152.622 404.857 152.622H60.1425C42.5573 152.622 28.3018 138.367 28.3018 120.781V55.6893Z" fill="url(#paint0_linear_4762_109026)"/>
<path d="M6.59204 34.8407C6.59204 18.1348 20.1348 4.59204 36.8407 4.59204H428.159C444.865 4.59204 458.408 18.1348 458.408 34.8407V142.857C458.408 159.563 444.865 173.106 428.159 173.106H36.8407C20.1348 173.106 6.59204 159.563 6.59204 142.857V34.8407Z" stroke="url(#paint1_linear_4762_109026)" stroke-width="3.18407"/>
<g style="mix-blend-mode:screen" opacity="0.4">
<path fill-rule="evenodd" clip-rule="evenodd" d="M436.698 101.317V56.9159C436.698 39.3308 422.442 25.0752 404.857 25.0752H60.1425C42.5573 25.0752 28.3018 39.3308 28.3018 56.9159V87.7491C37.1754 65.1192 53.7723 49.9 72.8047 49.9L387.973 46.9422C410.635 46.9422 429.884 70.5667 436.698 101.317Z" fill="url(#paint2_linear_4762_109026)"/>
</g>
<path d="M339.055 73.8835C337.113 68.3081 331.801 64.3154 325.567 64.3154H325.447C321.394 64.3154 317.737 65.994 315.147 68.7038C312.545 65.994 308.888 64.3154 304.848 64.3154H304.728C301.167 64.3154 297.906 65.6223 295.4 67.7806V66.6775C295.304 65.5864 294.416 64.7231 293.301 64.7231H283.733C282.558 64.7231 281.623 65.6703 281.623 66.8333V118.774C281.623 119.949 282.57 120.885 283.733 120.885H293.301C294.368 120.885 295.244 120.093 295.388 119.05V81.773C295.388 81.6531 295.388 81.5212 295.388 81.4013C295.532 79.7466 296.766 78.3678 298.685 78.1879H300.447C301.251 78.2599 301.934 78.5356 302.474 78.9673C303.301 79.6267 303.769 80.6459 303.769 81.761L303.805 118.858C303.805 120.033 304.752 120.98 305.915 120.98H315.483C316.61 120.98 317.533 120.081 317.593 118.954V81.689C317.593 80.466 318.145 79.363 319.14 78.7035C319.632 78.3798 320.219 78.1759 320.902 78.116H322.665C324.739 78.2958 325.986 79.8665 325.986 81.689L326.022 118.75C326.022 119.925 326.969 120.861 328.132 120.861H337.701C338.864 120.861 339.811 119.913 339.811 118.75V78.9553C339.811 76.2336 339.499 75.0825 339.079 73.8955" fill="#2D2E35"/>
<path d="M274.309 64.8668H268.841V55.9822C268.841 54.915 267.978 54.0518 266.911 54.0518C266.791 54.0518 266.659 54.0757 266.551 54.0997C260.484 55.7663 261.707 64.1714 250.628 64.8788H249.549C249.393 64.8788 249.238 64.9028 249.082 64.9387C248.134 65.1546 247.415 65.9939 247.415 67.001V76.5691C247.415 77.7321 248.362 78.6793 249.525 78.6793H255.293V119.242C255.293 120.405 256.216 121.34 257.379 121.34H266.827C267.978 121.34 268.925 120.405 268.925 119.242V78.6674H274.285C275.448 78.6674 276.395 77.7201 276.395 76.5571V66.989C276.395 65.826 275.448 64.8788 274.285 64.8788" fill="#2D2E35"/>
<path d="M239.91 64.8672H230.342C229.179 64.8672 228.231 65.8144 228.231 66.9774V86.761C228.207 87.984 227.224 88.9672 225.989 88.9672H221.985C220.75 88.9672 219.743 87.972 219.743 86.7251L219.707 66.9774C219.707 65.8144 218.759 64.8672 217.596 64.8672H208.028C206.853 64.8672 205.918 65.8144 205.918 66.9774V88.6555C205.918 96.8926 211.781 102.756 220.018 102.756C220.018 102.756 226.193 102.756 226.385 102.792C227.5 102.912 228.363 103.847 228.363 105.01C228.363 106.173 227.512 107.084 226.409 107.216C226.349 107.216 226.301 107.24 226.253 107.252L212.261 107.3C211.086 107.3 210.15 108.247 210.15 109.41V118.978C210.15 120.153 211.098 121.089 212.261 121.089H227.896C236.145 121.089 241.996 115.225 241.996 106.988V66.9894C241.996 65.8264 241.049 64.8792 239.886 64.8792" fill="#2D2E35"/>
<path d="M147.322 82.3967V88.2958C147.322 89.5307 146.327 90.5379 145.08 90.5379H139.001V78.7157H145.08C146.315 78.7157 147.322 79.7109 147.322 80.9579V82.3967ZM148.161 64.8672H127.263C126.112 64.8672 125.188 65.8024 125.188 66.9415V118.906C125.188 120.057 126.052 121.005 127.119 121.017H136.867C138.03 121.017 138.977 120.069 138.977 118.906L139.013 104.374H148.173C155.823 104.374 161.159 99.0628 161.159 91.3772V77.8884C161.159 70.2028 155.823 64.8672 148.173 64.8672" fill="#2D2E35"/>
<path d="M187.009 104.854V106.341C187.009 106.461 186.985 106.581 186.973 106.688C186.949 106.796 186.913 106.904 186.877 107C186.578 107.839 185.738 108.439 184.755 108.439H180.774C179.539 108.439 178.52 107.492 178.52 106.341V98.1755C178.52 97.0004 179.527 96.0772 180.774 96.0772H184.755C186.002 96.0772 187.009 97.0244 187.009 98.1755V104.854ZM185.487 64.927H172.214C171.038 64.927 170.091 65.8143 170.091 66.9054V75.862C170.091 77.025 171.098 77.9602 172.345 77.9602H184.983C185.978 78.1161 186.769 78.8475 186.877 79.9865V81.2095C186.769 82.2886 185.978 83.092 185.019 83.1759H178.76C170.439 83.1759 164.504 88.7033 164.504 96.4729V107.6C164.504 115.321 169.6 120.813 177.873 120.813H195.222C198.34 120.813 200.858 118.463 200.858 115.561V79.2671C200.858 70.4664 196.326 64.915 185.487 64.915V64.927Z" fill="#2D2E35"/>
</g>
<defs>
<filter id="filter0_d_4762_109026" x="0.0943394" y="0.54717" width="469.717" height="186.415" filterUnits="userSpaceOnUse" color-interpolation-filters="sRGB">
<feFlood flood-opacity="0" result="BackgroundImageFix"/>
<feColorMatrix in="SourceAlpha" type="matrix" values="0 0 0 0 0 0 0 0 0 0 0 0 0 0 0 0 0 0 127 0" result="hardAlpha"/>
<feOffset dx="2.45283" dy="4.90566"/>
<feGaussianBlur stdDeviation="3.67925"/>
<feComposite in2="hardAlpha" operator="out"/>
<feColorMatrix type="matrix" values="0 0 0 0 0 0 0 0 0 0 0 0 0 0 0 0 0 0 0.32 0"/>
<feBlend mode="normal" in2="BackgroundImageFix" result="effect1_dropShadow_4762_109026"/>
<feBlend mode="normal" in="SourceGraphic" in2="effect1_dropShadow_4762_109026" result="shape"/>
</filter>
<linearGradient id="paint0_linear_4762_109026" x1="28.3018" y1="88.2354" x2="436.699" y2="88.2354" gradientUnits="userSpaceOnUse">
<stop stop-color="#F2D71A"/>
<stop offset="1" stop-color="#ECB024"/>
</linearGradient>
<linearGradient id="paint1_linear_4762_109026" x1="5" y1="88.8491" x2="460.001" y2="88.8491" gradientUnits="userSpaceOnUse">
<stop stop-color="#F2D71A"/>
<stop offset="1" stop-color="#ECB024"/>
</linearGradient>
<linearGradient id="paint2_linear_4762_109026" x1="28.3018" y1="63.1961" x2="436.699" y2="63.1961" gradientUnits="userSpaceOnUse">
<stop stop-color="#F2D71A"/>
<stop offset="1" stop-color="#ECB024"/>
</linearGradient>
</defs>
</svg>
