<svg width="470" height="187" viewBox="0 0 470 187" fill="none" xmlns="http://www.w3.org/2000/svg">
<g filter="url(#filter0_d_4762_108961)">
<path d="M28.3018 55.6893C28.3018 38.1042 42.5573 23.8486 60.1425 23.8486H404.857C422.442 23.8486 436.698 38.1042 436.698 55.6894V120.782C436.698 138.367 422.442 152.622 404.857 152.622H60.1425C42.5573 152.622 28.3018 138.367 28.3018 120.781V55.6893Z" fill="url(#paint0_linear_4762_108961)"/>
<path d="M6.59204 34.8407C6.59204 18.1348 20.1348 4.59204 36.8407 4.59204H428.159C444.865 4.59204 458.408 18.1348 458.408 34.8407V142.857C458.408 159.563 444.865 173.106 428.159 173.106H36.8407C20.1348 173.106 6.59204 159.563 6.59204 142.857V34.8407Z" stroke="url(#paint1_linear_4762_108961)" stroke-width="3.18407"/>
<g style="mix-blend-mode:screen" opacity="0.4">
<path fill-rule="evenodd" clip-rule="evenodd" d="M436.698 101.317V56.9159C436.698 39.3308 422.442 25.0752 404.857 25.0752H60.1425C42.5573 25.0752 28.3018 39.3308 28.3018 56.9159V87.7491C37.1754 65.1192 53.7723 49.9 72.8047 49.9L387.973 46.9422C410.635 46.9422 429.884 70.5667 436.698 101.317Z" fill="url(#paint2_linear_4762_108961)"/>
</g>
<path d="M284.941 110.34V96.8753C284.941 93.56 283.655 91.9024 280.469 91.9024C279.183 91.9024 277.708 92.1057 276.845 92.309V111.998C276.845 112.623 276.201 113.249 275.558 113.249H270.662C270.019 113.249 269.391 112.623 269.391 111.998V88.9936C269.391 88.1648 270.034 87.5393 270.662 87.336C273.863 86.3039 277.049 85.6783 280.469 85.6783C288.143 85.6783 292.411 89.6192 292.411 96.8597V112.185C292.411 112.811 291.767 113.421 291.124 113.421H288.143C286.228 113.421 284.941 111.966 284.941 110.309V110.34ZM304.117 102.255L303.897 104.116C303.897 106.602 305.607 108.057 308.369 108.057C310.503 108.057 312.418 107.431 314.552 106.399C314.771 106.399 314.975 106.196 315.195 106.196C315.619 106.196 315.838 106.399 316.042 106.602C316.262 106.806 316.686 107.431 316.686 107.431C317.109 108.057 317.533 108.885 317.533 109.495C317.533 110.528 316.89 111.56 316.042 111.982C313.704 113.233 310.927 113.843 307.945 113.843C304.54 113.843 301.763 113.014 299.629 111.356C297.495 109.495 296.224 107.009 296.224 103.897V95.8119C296.224 89.3846 300.492 85.4594 307.726 85.4594C314.96 85.4594 318.804 89.1969 318.804 95.8119V100.785C318.804 101.41 318.161 102.036 317.517 102.036H304.085V102.239L304.117 102.255ZM303.897 97.7041H311.994V95.6399C311.994 93.1534 310.503 91.4958 307.945 91.4958C305.388 91.4958 303.897 92.9501 303.897 95.6399V97.7041ZM358.237 102.255L358.017 104.116C358.017 106.602 359.728 108.057 362.49 108.057C364.624 108.057 366.538 107.431 368.672 106.399C368.892 106.399 369.096 106.196 369.315 106.196C369.739 106.196 369.959 106.399 370.163 106.602C370.382 106.806 370.806 107.431 370.806 107.431C371.23 108.057 371.653 108.885 371.653 109.495C371.653 110.528 371.01 111.56 370.163 111.982C367.825 113.233 365.047 113.843 362.066 113.843C358.661 113.843 355.883 113.014 353.749 111.356C351.615 109.495 350.344 107.009 350.344 103.897V95.8119C350.344 89.3846 354.612 85.4594 361.846 85.4594C369.08 85.4594 372.924 89.1969 372.924 95.8119V100.785C372.924 101.41 372.281 102.036 371.638 102.036H358.206V102.239L358.237 102.255ZM358.017 97.7041H366.114V95.6399C366.114 93.1534 364.624 91.4958 362.066 91.4958C359.508 91.4958 358.017 92.9501 358.017 95.6399V97.7041ZM232.704 113.452H235.685C236.329 113.452 236.956 112.826 236.956 112.201V96.8753C236.956 89.8381 233.128 85.694 226.725 85.694C224.811 85.694 222.677 86.1006 221.39 86.5228V78.8601C221.39 77.2024 219.9 75.748 218.189 75.748H215.208C214.564 75.748 213.921 76.3736 213.921 76.9991V112.216C213.921 112.842 214.564 113.468 215.208 113.468H220.104C220.747 113.468 221.375 112.842 221.375 112.216V92.7468C222.442 92.3402 223.932 92.1213 224.999 92.1213C228.2 92.1213 229.471 93.5756 229.471 97.0943V110.559C229.691 112.013 230.962 113.452 232.673 113.452H232.704ZM264.888 96.0465V103.709C264.888 110.137 260.415 114.062 252.946 114.062C245.477 114.062 241.005 110.121 241.005 103.709V96.0465C241.005 89.6192 245.477 85.694 252.946 85.694C260.415 85.694 264.888 89.6348 264.888 96.0465ZM257.434 96.0465C257.434 93.56 255.943 91.9024 253.166 91.9024C250.388 91.9024 248.898 93.3567 248.898 96.0465V103.709C248.898 106.196 250.388 107.65 253.166 107.65C255.943 107.65 257.434 106.196 257.434 103.709V96.0465ZM209.904 92.5279C209.904 99.1585 204.789 103.709 197.963 103.709C196.252 103.709 194.762 103.506 193.271 102.88V112.201C193.271 112.826 192.627 113.436 192 113.436H187.104C186.461 113.436 185.833 112.811 185.833 112.201V79.2667C185.833 78.4378 186.476 77.8123 187.104 77.609C190.305 76.5769 193.491 75.9513 196.911 75.9513C204.585 75.9513 209.904 80.5021 209.904 87.5549V92.5279ZM202.231 87.1483C202.231 83.833 199.893 82.1754 196.692 82.1754C194.777 82.1754 193.491 82.8009 193.491 82.8009V96.4687C194.777 97.0943 195.405 97.2976 196.896 97.2976C200.097 97.2976 202.435 95.4366 202.435 92.3246V87.1483H202.215H202.231ZM347.567 92.5279C347.567 99.1585 342.451 103.709 335.625 103.709C333.915 103.709 332.424 103.506 330.934 102.88V112.201C330.934 112.826 330.29 113.436 329.647 113.436H324.751C324.108 113.436 323.464 112.811 323.464 112.201V79.2667C323.464 78.4378 324.108 77.8123 324.751 77.609C327.952 76.5769 331.138 75.9513 334.558 75.9513C342.232 75.9513 347.551 80.5021 347.551 87.5549V92.5279H347.567ZM339.894 87.1483C339.894 83.833 337.556 82.1754 334.354 82.1754C332.44 82.1754 331.153 82.8009 331.153 82.8009V96.4687C332.44 97.0943 333.068 97.2976 334.558 97.2976C337.76 97.2976 340.098 95.4366 340.098 92.3246V87.1483H339.894Z" fill="#2D2E35"/>
<path fill-rule="evenodd" clip-rule="evenodd" d="M168.133 89.088C168.133 109.543 151.107 126.119 130.112 126.119C109.116 126.119 92.0752 109.543 92.0752 89.088C92.0752 68.6332 109.101 52.0566 130.096 52.0566C151.091 52.0566 168.117 68.6332 168.117 89.088H168.133ZM144.611 76.7494C146.102 76.7494 147.388 77.9849 147.388 79.4236V81.4878C147.388 82.1133 146.965 82.5199 146.321 82.5199H141.41V111.967C141.41 112.592 140.766 113.202 140.123 113.202H137.126C135.212 113.202 133.705 111.763 133.705 109.903V103.319C131.571 104.148 129.861 104.351 127.727 104.351C120.901 104.351 116.837 100.019 116.837 92.6066V82.7232H113.855C112.364 82.7232 111.078 81.4878 111.078 80.0491V77.9849C111.078 77.3593 111.501 76.9527 112.145 76.9527H131.571L118.767 65.2084C118.343 64.8018 118.547 63.973 119.19 63.7697L123.254 62.5343C124.965 62.1277 126.675 62.5343 127.742 63.7697L139.48 76.7494H144.611ZM129.453 97.9549C130.739 97.9549 132.45 97.7516 133.721 97.1261V82.7076H124.322V92.591C124.322 96.2972 126.032 97.9393 129.453 97.9393V97.9549Z" fill="#2D2E35"/>
</g>
<defs>
<filter id="filter0_d_4762_108961" x="0.0943394" y="0.54717" width="469.717" height="186.415" filterUnits="userSpaceOnUse" color-interpolation-filters="sRGB">
<feFlood flood-opacity="0" result="BackgroundImageFix"/>
<feColorMatrix in="SourceAlpha" type="matrix" values="0 0 0 0 0 0 0 0 0 0 0 0 0 0 0 0 0 0 127 0" result="hardAlpha"/>
<feOffset dx="2.45283" dy="4.90566"/>
<feGaussianBlur stdDeviation="3.67925"/>
<feComposite in2="hardAlpha" operator="out"/>
<feColorMatrix type="matrix" values="0 0 0 0 0 0 0 0 0 0 0 0 0 0 0 0 0 0 0.32 0"/>
<feBlend mode="normal" in2="BackgroundImageFix" result="effect1_dropShadow_4762_108961"/>
<feBlend mode="normal" in="SourceGraphic" in2="effect1_dropShadow_4762_108961" result="shape"/>
</filter>
<linearGradient id="paint0_linear_4762_108961" x1="28.3018" y1="88.2354" x2="436.699" y2="88.2354" gradientUnits="userSpaceOnUse">
<stop stop-color="#F2D71A"/>
<stop offset="1" stop-color="#ECB024"/>
</linearGradient>
<linearGradient id="paint1_linear_4762_108961" x1="5" y1="88.8491" x2="460.001" y2="88.8491" gradientUnits="userSpaceOnUse">
<stop stop-color="#F2D71A"/>
<stop offset="1" stop-color="#ECB024"/>
</linearGradient>
<linearGradient id="paint2_linear_4762_108961" x1="28.3018" y1="63.1961" x2="436.699" y2="63.1961" gradientUnits="userSpaceOnUse">
<stop stop-color="#F2D71A"/>
<stop offset="1" stop-color="#ECB024"/>
</linearGradient>
</defs>
</svg>
