<svg width="470" height="187" viewBox="0 0 470 187" fill="none" xmlns="http://www.w3.org/2000/svg">
<g filter="url(#filter0_d_4762_108923)">
<path d="M28.3018 55.6893C28.3018 38.1042 42.5573 23.8486 60.1425 23.8486H404.857C422.442 23.8486 436.698 38.1042 436.698 55.6894V120.782C436.698 138.367 422.442 152.622 404.857 152.622H60.1425C42.5573 152.622 28.3018 138.367 28.3018 120.781V55.6893Z" fill="url(#paint0_linear_4762_108923)"/>
<path d="M6.59204 34.8407C6.59204 18.1348 20.1348 4.59204 36.8407 4.59204H428.159C444.865 4.59204 458.408 18.1348 458.408 34.8407V142.857C458.408 159.563 444.865 173.106 428.159 173.106H36.8407C20.1348 173.106 6.59204 159.563 6.59204 142.857V34.8407Z" stroke="url(#paint1_linear_4762_108923)" stroke-width="3.18407"/>
<g style="mix-blend-mode:screen" opacity="0.4">
<path fill-rule="evenodd" clip-rule="evenodd" d="M436.698 101.317V56.9159C436.698 39.3308 422.442 25.0752 404.857 25.0752H60.1425C42.5573 25.0752 28.3018 39.3308 28.3018 56.9159V87.7491C37.1754 65.1192 53.7723 49.9 72.8047 49.9L387.973 46.9422C410.635 46.9422 429.884 70.5667 436.698 101.317Z" fill="url(#paint2_linear_4762_108923)"/>
</g>
<path d="M204.026 67.5819C203.738 67.6997 203.791 68.0138 203.673 68.2231C202.966 69.5579 201.919 70.4085 200.375 70.5263C200.009 70.5525 199.629 70.5786 199.263 70.5786H120.171C118.993 70.5786 117.881 70.4739 116.925 69.6888C114.518 67.6997 115.028 64.1141 117.972 62.7531C121.545 61.1043 125.143 59.5209 128.729 57.8982C138.308 53.606 147.887 49.3006 157.466 44.9953C157.976 44.7598 158.513 44.5635 159.036 44.3672H160.424C162.295 44.6158 163.878 45.6104 165.54 46.3563C171.18 48.8688 176.794 51.3944 182.421 53.9331C187.394 56.1839 192.367 58.3955 197.326 60.6463C198.635 61.2482 199.957 61.8371 201.278 62.4129C202.809 63.0803 203.909 64.0487 204.039 65.8022V67.5819H204.026Z" fill="#2D2E35"/>
<path d="M204.026 129.898C203.738 130.016 203.777 130.33 203.673 130.539C202.94 132.083 201.723 132.908 200.009 133.012H119.817C117.763 133.012 116.205 132.018 115.616 130.317C114.713 127.726 116.48 125.148 119.307 124.912C119.647 124.886 120 124.912 120.354 124.912H198.831C201.945 124.912 202.927 125.553 204.039 128.354V129.911L204.026 129.898Z" fill="#2D2E35"/>
<path d="M194.918 114.483C194.119 114.483 193.936 114.26 193.936 113.488C193.962 102.064 193.949 90.6531 193.936 79.229C193.936 78.5877 193.936 78.169 194.8 78.2344C195.716 78.2737 196.462 77.8026 196.802 76.8866C197.064 76.1406 196.907 75.4471 196.37 74.8713C195.794 74.2432 195.022 74.1777 194.224 74.1777H124.841C123.402 74.1777 122.499 74.9236 122.447 76.1145C122.407 77.3315 123.206 78.2213 124.632 78.2344C125.378 78.2344 125.43 78.5223 125.43 79.1374V113.999C125.47 114.391 125.286 114.509 124.933 114.47C124.711 114.457 124.475 114.47 124.24 114.483C121.23 114.627 119.463 117.833 120.929 120.463C121.845 122.086 123.324 122.57 125.077 122.57H194.028C194.42 122.57 194.839 122.557 195.232 122.492C197.456 122.23 199.04 120.45 198.935 118.356C198.83 116.158 197.155 114.509 194.878 114.496H194.904L194.918 114.483ZM144.719 114.483C141.251 114.444 137.797 114.444 134.329 114.483C133.648 114.483 133.531 114.287 133.531 113.658C133.544 102.117 133.544 90.5877 133.531 79.0458C133.531 78.4045 133.688 78.2344 134.342 78.2475C137.823 78.2737 141.317 78.2737 144.811 78.2475C145.426 78.2475 145.57 78.4045 145.557 79.0065C145.531 84.8167 145.557 90.6008 145.557 96.411C145.557 102.221 145.557 107.888 145.57 113.632C145.57 114.313 145.413 114.496 144.719 114.483ZM164.898 114.47C161.417 114.444 157.923 114.444 154.429 114.47C153.762 114.47 153.631 114.3 153.631 113.658C153.657 107.874 153.644 102.064 153.644 96.2671C153.644 90.4699 153.644 84.8429 153.631 79.1504C153.631 78.47 153.736 78.2213 154.495 78.2344C157.975 78.2737 161.469 78.2606 164.963 78.2344C165.552 78.2344 165.749 78.3784 165.749 78.9934C165.736 90.5615 165.736 102.117 165.749 113.672C165.749 114.365 165.513 114.457 164.911 114.457H164.898V114.47ZM185.875 113.554C185.875 114.234 185.77 114.483 185.011 114.483C181.53 114.444 178.036 114.457 174.542 114.483C173.98 114.483 173.81 114.352 173.81 113.776C173.823 102.182 173.823 90.5877 173.81 78.9934C173.81 78.4307 173.941 78.2606 174.529 78.2606C178.036 78.2868 181.57 78.2868 185.077 78.2606C185.705 78.2606 185.888 78.3915 185.888 79.0588C185.862 84.8429 185.875 90.6531 185.875 96.4503C185.875 102.247 185.875 107.874 185.888 113.58H185.875V113.554Z" fill="#2D2E35"/>
<path d="M226.259 61.1824C227.646 60.9338 230.42 60.6982 233.077 60.6982C236.296 60.6982 238.259 61.0123 239.999 62.0199C241.635 62.8836 242.76 64.4801 242.76 66.6262C242.76 68.7724 241.556 70.5652 238.926 71.5728V71.6513C241.583 72.3449 243.572 74.3863 243.572 77.3568C243.572 79.503 242.603 81.1649 241.151 82.3426C239.463 83.6905 236.623 84.4626 231.977 84.4626C229.373 84.4626 227.45 84.2925 226.272 84.1093V61.1824H226.259ZM231.493 70.1071H233.234C236.047 70.1071 237.5 68.9556 237.5 67.2413C237.5 65.527 236.152 64.5325 233.77 64.5325C232.592 64.5325 231.938 64.611 231.519 64.6633V70.1071H231.506H231.493ZM231.493 80.4582C232.004 80.5368 232.645 80.5368 233.535 80.5368C235.916 80.5368 238.036 79.5946 238.036 77.1475C238.036 74.8312 235.916 73.9021 233.286 73.9021H231.493V80.4713V80.4582Z" fill="#2D2E35"/>
<path d="M261.161 80.1058C261.161 81.6892 261.239 83.2465 261.435 84.1887H256.685L256.371 82.5006H256.266C255.167 83.8484 253.427 84.5682 251.411 84.5682C247.983 84.5682 245.941 82.0818 245.941 79.3861C245.941 74.9892 249.88 72.9216 255.874 72.9216V72.7122C255.874 71.77 255.39 70.4875 252.785 70.4875C251.045 70.4875 249.226 71.0764 248.114 71.77L247.145 68.3807C248.323 67.7133 250.639 66.8496 253.715 66.8496C259.355 66.8496 261.121 70.1735 261.121 74.1778V80.1058H261.134H261.161ZM256.07 76.1931C253.309 76.1931 251.163 76.8605 251.163 78.8496C251.163 80.1974 252.066 80.8648 253.23 80.8648C254.513 80.8648 255.612 80.0011 255.965 78.9281C256.044 78.6533 256.07 78.3392 256.07 78.0251V76.1931Z" fill="#2D2E35"/>
<path d="M265.348 72.6596C265.348 70.5397 265.269 68.7862 265.217 67.2682H269.784L270.019 69.6237H270.124C270.818 68.5244 272.506 66.8887 275.345 66.8887C278.8 66.8887 281.404 69.2049 281.404 74.1907V84.1885H276.144V74.8188C276.144 72.6466 275.385 71.1417 273.487 71.1417C272.035 71.1417 271.158 72.1362 270.778 73.1046C270.648 73.4579 270.608 73.929 270.608 74.4132V84.1754H265.348V72.6596Z" fill="#2D2E35"/>
<path d="M290.893 74.3996H290.971C291.351 73.6799 291.769 72.9732 292.175 72.3582L295.604 67.2677H301.937L295.878 74.1117L302.801 84.1749H296.336L292.227 77.2262L290.919 78.8881V84.1749H285.658V59.6123H290.919V74.3865H290.906L290.893 74.3996Z" fill="#2D2E35"/>
<path d="M230.787 106.814H224.479V102.391H242.407V106.814H236.048V125.697H230.787V106.814Z" fill="#2D2E35"/>
<path d="M243.18 114.378C243.18 111.892 243.154 110.269 243.049 108.804H247.55L247.76 111.918H247.891C248.754 109.419 250.796 108.385 252.458 108.385C252.942 108.385 253.177 108.411 253.557 108.489V113.436C253.151 113.357 252.733 113.305 252.144 113.305C250.207 113.305 248.898 114.352 248.545 115.962C248.466 116.315 248.44 116.721 248.44 117.139V125.724H243.18V114.378Z" fill="#2D2E35"/>
<path d="M270.033 121.627C270.033 123.211 270.111 124.768 270.307 125.71H265.557L265.243 124.022H265.138C264.039 125.37 262.299 126.09 260.283 126.09C256.855 126.09 254.813 123.603 254.813 120.908C254.813 116.511 258.752 114.443 264.746 114.443V114.234C264.746 113.291 264.262 112.009 261.657 112.009C259.917 112.009 258.098 112.598 256.986 113.291L256.017 109.902C257.195 109.235 259.511 108.371 262.587 108.371C268.227 108.371 269.993 111.695 269.993 115.699V121.627H270.006H270.033ZM264.942 117.715C262.181 117.715 260.035 118.382 260.035 120.371C260.035 121.719 260.925 122.386 262.102 122.386C263.385 122.386 264.484 121.523 264.837 120.45C264.916 120.175 264.942 119.861 264.942 119.547V117.715Z" fill="#2D2E35"/>
<path d="M274.221 114.195C274.221 112.075 274.142 110.321 274.09 108.803H278.657L278.892 111.159H278.997C279.691 110.06 281.379 108.424 284.218 108.424C287.673 108.424 290.277 110.74 290.277 115.726V125.724H285.017V116.354C285.017 114.182 284.258 112.677 282.36 112.677C280.908 112.677 280.044 113.671 279.651 114.64C279.521 114.993 279.468 115.464 279.468 115.948V125.711H274.208V114.195H274.221Z" fill="#2D2E35"/>
<path d="M294.465 121.143C295.433 121.732 297.435 122.386 298.992 122.386C300.55 122.386 301.243 121.876 301.243 120.999C301.243 120.122 300.733 119.691 298.783 119.036C295.25 117.859 293.902 115.948 293.928 113.946C293.928 110.753 296.637 108.371 300.825 108.371C302.801 108.371 304.528 108.855 305.575 109.366L304.685 112.99C303.926 112.585 302.434 112.022 301.008 112.022C299.725 112.022 298.992 112.532 298.992 113.37C298.992 114.207 299.66 114.613 301.727 115.333C304.947 116.432 306.255 118.094 306.294 120.567C306.294 123.76 303.834 126.063 298.992 126.063C296.768 126.063 294.805 125.553 293.522 124.86L294.465 121.13V121.143Z" fill="#2D2E35"/>
<path d="M310.129 125.711V112.664H307.878V108.79H310.129V108.123C310.129 106.082 310.744 103.831 312.249 102.457C313.597 101.213 315.389 100.769 316.947 100.769C318.098 100.769 318.988 100.939 319.708 101.122L319.498 105.165C319.04 105.035 318.504 104.93 317.81 104.93C316.07 104.93 315.35 106.278 315.35 107.94V108.803H318.739V112.677H315.389V125.724H310.116L310.129 125.711Z" fill="#2D2E35"/>
<path d="M325.021 118.931C325.152 121.104 327.337 122.151 329.797 122.151C331.59 122.151 333.043 121.915 334.469 121.431L335.162 124.99C333.422 125.71 331.328 126.063 329.038 126.063C323.293 126.063 320.009 122.739 320.009 117.453C320.009 113.16 322.665 108.41 328.567 108.41C334.037 108.41 336.105 112.676 336.105 116.851C336.105 117.754 336 118.539 335.935 118.918H325.034L325.021 118.931ZM331.21 115.346C331.21 114.063 330.648 111.917 328.24 111.917C326.015 111.917 325.125 113.959 324.995 115.346H331.224H331.21Z" fill="#2D2E35"/>
<path d="M339.246 114.378C339.246 111.892 339.22 110.269 339.115 108.804H343.617L343.826 111.918H343.957C344.821 109.419 346.862 108.385 348.524 108.385C349.008 108.385 349.244 108.411 349.623 108.489V113.436C349.218 113.357 348.799 113.305 348.21 113.305C346.273 113.305 344.965 114.352 344.611 115.962C344.533 116.315 344.507 116.721 344.507 117.139V125.724H339.246V114.378Z" fill="#2D2E35"/>
</g>
<defs>
<filter id="filter0_d_4762_108923" x="0.0943394" y="0.54717" width="469.717" height="186.415" filterUnits="userSpaceOnUse" color-interpolation-filters="sRGB">
<feFlood flood-opacity="0" result="BackgroundImageFix"/>
<feColorMatrix in="SourceAlpha" type="matrix" values="0 0 0 0 0 0 0 0 0 0 0 0 0 0 0 0 0 0 127 0" result="hardAlpha"/>
<feOffset dx="2.45283" dy="4.90566"/>
<feGaussianBlur stdDeviation="3.67925"/>
<feComposite in2="hardAlpha" operator="out"/>
<feColorMatrix type="matrix" values="0 0 0 0 0 0 0 0 0 0 0 0 0 0 0 0 0 0 0.32 0"/>
<feBlend mode="normal" in2="BackgroundImageFix" result="effect1_dropShadow_4762_108923"/>
<feBlend mode="normal" in="SourceGraphic" in2="effect1_dropShadow_4762_108923" result="shape"/>
</filter>
<linearGradient id="paint0_linear_4762_108923" x1="28.3018" y1="88.2354" x2="436.699" y2="88.2354" gradientUnits="userSpaceOnUse">
<stop stop-color="#F2D71A"/>
<stop offset="1" stop-color="#ECB024"/>
</linearGradient>
<linearGradient id="paint1_linear_4762_108923" x1="5" y1="88.8491" x2="460.001" y2="88.8491" gradientUnits="userSpaceOnUse">
<stop stop-color="#F2D71A"/>
<stop offset="1" stop-color="#ECB024"/>
</linearGradient>
<linearGradient id="paint2_linear_4762_108923" x1="28.3018" y1="63.1961" x2="436.699" y2="63.1961" gradientUnits="userSpaceOnUse">
<stop stop-color="#F2D71A"/>
<stop offset="1" stop-color="#ECB024"/>
</linearGradient>
</defs>
</svg>
