<svg width="470" height="187" viewBox="0 0 470 187" fill="none" xmlns="http://www.w3.org/2000/svg">
<g filter="url(#filter0_d_4762_108978)">
<path d="M28.3018 55.6893C28.3018 38.1042 42.5573 23.8486 60.1425 23.8486H404.857C422.442 23.8486 436.698 38.1042 436.698 55.6894V120.782C436.698 138.367 422.442 152.622 404.857 152.622H60.1425C42.5573 152.622 28.3018 138.367 28.3018 120.781V55.6893Z" fill="url(#paint0_linear_4762_108978)"/>
<path d="M6.59204 34.8407C6.59204 18.1348 20.1348 4.59204 36.8407 4.59204H428.159C444.865 4.59204 458.408 18.1348 458.408 34.8407V142.857C458.408 159.563 444.865 173.106 428.159 173.106H36.8407C20.1348 173.106 6.59204 159.563 6.59204 142.857V34.8407Z" stroke="url(#paint1_linear_4762_108978)" stroke-width="3.18407"/>
<g style="mix-blend-mode:screen" opacity="0.4">
<path fill-rule="evenodd" clip-rule="evenodd" d="M436.698 101.317V56.9159C436.698 39.3308 422.442 25.0752 404.857 25.0752H60.1425C42.5573 25.0752 28.3018 39.3308 28.3018 56.9159V87.7491C37.1754 65.1192 53.7723 49.9 72.8047 49.9L387.973 46.9422C410.635 46.9422 429.884 70.5666 436.698 101.317Z" fill="url(#paint2_linear_4762_108978)"/>
</g>
</g>
<path d="M123.29 116.839H124.933L123.389 123.261C123.167 124.212 123.204 124.941 123.525 125.41C123.834 125.892 124.426 126.127 125.279 126.127C126.131 126.127 126.822 125.892 127.378 125.41C127.921 124.929 128.304 124.225 128.539 123.261L130.07 116.839H131.75L130.181 123.422C129.836 124.842 129.23 125.917 128.354 126.633C127.477 127.337 126.341 127.695 124.908 127.695C123.475 127.695 122.512 127.337 121.994 126.633C121.462 125.929 121.364 124.855 121.722 123.41L123.29 116.827H123.303L123.29 116.839Z" fill="#2D2E35"/>
<path d="M131.539 127.423L134.17 116.432L139.171 122.891C139.307 123.076 139.443 123.273 139.579 123.483C139.715 123.693 139.85 123.928 139.986 124.187L141.74 116.864H143.284L140.653 127.855L135.553 121.273C135.417 121.088 135.293 120.902 135.17 120.705C135.046 120.507 134.948 120.297 134.849 120.087L133.083 127.435H131.539V127.411V127.423Z" fill="#2D2E35"/>
<path d="M143.136 127.423L145.68 116.852H147.359L144.84 127.423H143.148H143.136Z" fill="#2D2E35"/>
<path d="M147.223 127.423L149.767 116.852H155.522L155.164 118.321H151.076L150.447 120.964H154.534L154.164 122.471H150.076L148.891 127.448H147.211L147.223 127.423Z" fill="#2D2E35"/>
<path d="M154.832 127.423L157.376 116.852H159.056L156.536 127.423H154.844H154.832Z" fill="#2D2E35"/>
<path d="M158.908 127.423L161.452 116.852H167.207L166.848 118.321H162.761L162.118 120.976H166.206L165.836 122.483H161.748L160.921 125.904H165.008L164.638 127.448H158.883H158.895L158.908 127.423Z" fill="#2D2E35"/>
<path d="M168.626 125.867H170.033C170.812 125.867 171.404 125.818 171.812 125.706C172.232 125.608 172.615 125.422 172.948 125.175C173.417 124.83 173.813 124.397 174.121 123.903C174.43 123.397 174.665 122.804 174.838 122.125C174.998 121.446 175.048 120.853 174.973 120.359C174.899 119.853 174.714 119.433 174.393 119.075C174.158 118.828 173.862 118.642 173.479 118.543C173.096 118.445 172.466 118.383 171.602 118.383H170.379L168.589 125.867H168.601H168.626ZM166.588 127.423L169.132 116.852H171.392C172.862 116.852 173.874 116.926 174.442 117.074C175.01 117.234 175.467 117.481 175.826 117.827C176.307 118.296 176.628 118.902 176.752 119.618C176.888 120.347 176.838 121.186 176.604 122.125C176.381 123.064 176.023 123.891 175.542 124.62C175.06 125.336 174.467 125.941 173.763 126.41C173.232 126.768 172.652 127.028 172.034 127.164C171.417 127.324 170.503 127.386 169.293 127.386H166.588V127.423Z" fill="#2D2E35"/>
<path d="M184.767 121.273H185.2C186.126 121.273 186.768 121.174 187.139 120.964C187.509 120.754 187.744 120.383 187.867 119.865C188.003 119.297 187.929 118.914 187.657 118.679C187.386 118.444 186.805 118.321 185.916 118.321H185.484L184.78 121.26H184.767V121.273ZM184.323 122.693L183.187 127.447H181.618L184.162 116.876H186.706C187.447 116.876 188.003 116.913 188.324 117.012C188.645 117.086 188.942 117.234 189.152 117.432C189.411 117.679 189.596 118.012 189.67 118.432C189.744 118.852 189.732 119.309 189.621 119.803C189.497 120.297 189.3 120.766 189.016 121.186C188.732 121.606 188.398 121.939 188.015 122.186C187.707 122.384 187.361 122.507 186.99 122.594C186.607 122.668 186.052 122.717 185.298 122.717H184.323V122.693Z" fill="#2D2E35"/>
<path d="M191.67 123.286H194.548L194.066 120.877C194.042 120.717 194.029 120.556 194.004 120.346C193.992 120.149 193.98 119.926 193.967 119.679C193.869 119.914 193.745 120.124 193.622 120.322C193.523 120.519 193.399 120.704 193.301 120.865L191.67 123.273H191.683L191.67 123.286ZM195.314 127.447L194.795 124.73H190.707L188.867 127.447H187.113L194.745 116.456L197.104 127.447H195.326H195.314Z" fill="#2D2E35"/>
<path d="M199.488 127.423L200.637 122.582L198.537 116.852H200.303L201.612 120.433C201.637 120.519 201.674 120.643 201.711 120.803C201.748 120.952 201.785 121.112 201.835 121.285C201.933 121.112 202.044 120.964 202.156 120.816C202.254 120.668 202.378 120.532 202.477 120.408L205.539 116.864H207.219L202.304 122.594L201.143 127.435H199.476L199.488 127.423Z" fill="#2D2E35"/>
<path d="M215.469 122.198C215.469 122.124 215.494 121.89 215.531 121.519C215.568 121.21 215.593 120.951 215.605 120.741C215.506 120.976 215.383 121.223 215.247 121.457C215.111 121.692 214.963 121.939 214.777 122.186L210.739 127.83L209.418 122.075C209.368 121.84 209.319 121.605 209.282 121.396C209.257 121.173 209.232 120.951 209.232 120.741C209.183 120.963 209.097 121.198 209.01 121.433C208.924 121.68 208.813 121.927 208.701 122.186L206.343 127.398H204.799L209.875 116.369L211.32 123.038C211.344 123.137 211.369 123.322 211.406 123.557C211.443 123.804 211.48 124.1 211.542 124.471C211.715 124.174 211.962 123.779 212.283 123.322C212.369 123.186 212.443 123.1 212.48 123.038L217.05 116.369L216.902 127.398H215.346L215.444 122.174H215.457L215.469 122.198Z" fill="#2D2E35"/>
<path d="M218.26 127.423L220.804 116.852H226.559L226.201 118.321H222.114L221.484 120.976H225.571L225.201 122.483H221.113L220.286 125.904H224.374L224.003 127.448H218.248L218.26 127.423Z" fill="#2D2E35"/>
<path d="M225.941 127.423L228.572 116.432L233.574 122.891C233.709 123.076 233.845 123.273 233.981 123.483C234.117 123.693 234.253 123.928 234.389 124.187L236.142 116.864H237.686L235.056 127.855L229.955 121.273C229.819 121.088 229.696 120.902 229.572 120.705C229.449 120.507 229.35 120.297 229.251 120.087L227.485 127.435H225.941V127.411V127.423Z" fill="#2D2E35"/>
<path d="M243.047 118.297L240.861 127.411H239.181L241.367 118.297H238.638L238.996 116.827H246.134L245.776 118.297H243.047Z" fill="#2D2E35"/>
<path d="M244.775 125.299L246.269 124.657C246.269 125.126 246.429 125.497 246.713 125.744C246.985 125.991 247.393 126.114 247.911 126.114C248.405 126.114 248.838 125.966 249.196 125.682C249.566 125.398 249.801 125.015 249.912 124.546C250.06 123.916 249.69 123.372 248.801 122.878C248.677 122.804 248.578 122.743 248.517 122.718C247.516 122.15 246.886 121.631 246.615 121.174C246.355 120.717 246.294 120.149 246.454 119.482C246.664 118.618 247.109 117.926 247.813 117.383C248.504 116.852 249.319 116.58 250.245 116.58C251.011 116.58 251.604 116.741 252.049 117.037C252.493 117.333 252.74 117.766 252.802 118.334L251.32 119.025C251.184 118.704 251.024 118.445 250.814 118.297C250.604 118.136 250.344 118.062 250.011 118.062C249.566 118.062 249.171 118.186 248.85 118.433C248.529 118.667 248.319 119.001 248.22 119.396C248.06 120.038 248.504 120.631 249.542 121.174C249.616 121.211 249.69 121.248 249.727 121.273C250.628 121.755 251.221 122.224 251.493 122.681C251.765 123.138 251.814 123.718 251.653 124.41C251.419 125.423 250.925 126.201 250.159 126.806C249.393 127.399 248.492 127.695 247.454 127.695C246.578 127.695 245.911 127.485 245.441 127.077C244.984 126.658 244.75 126.065 244.762 125.299" fill="#2D2E35"/>
<path d="M257.162 127.423L259.706 116.852H261.386L258.842 127.423H257.162Z" fill="#2D2E35"/>
<path d="M261.237 127.423L263.868 116.432L268.869 122.891C269.005 123.076 269.141 123.273 269.277 123.483C269.413 123.693 269.549 123.928 269.685 124.187L271.438 116.864H272.982L270.351 127.855L265.251 121.273C265.115 121.088 264.992 120.902 264.868 120.705C264.745 120.507 264.646 120.297 264.547 120.087L262.781 127.435H261.237V127.411V127.423Z" fill="#2D2E35"/>
<path d="M278.342 118.297L276.157 127.411H274.477L276.663 118.297H273.934L274.292 116.827H281.442L281.084 118.297H278.355H278.342Z" fill="#2D2E35"/>
<path d="M280.157 127.423L282.701 116.852H288.456L288.098 118.321H284.01L283.368 120.976H287.444L287.073 122.483H282.985L282.158 125.904H286.246L285.875 127.448H280.12H280.132L280.157 127.423Z" fill="#2D2E35"/>
<path d="M290.977 121.347H291.273C292.162 121.347 292.78 121.248 293.113 121.038C293.459 120.828 293.694 120.445 293.817 119.914C293.965 119.321 293.891 118.914 293.644 118.679C293.397 118.444 292.842 118.321 291.989 118.321H291.693L290.964 121.359L290.977 121.347ZM290.544 122.668L289.408 127.41H287.84L290.372 116.839H292.718C293.397 116.839 293.916 116.876 294.274 116.987C294.632 117.074 294.916 117.234 295.139 117.444C295.398 117.691 295.571 118.037 295.633 118.444C295.707 118.852 295.682 119.296 295.583 119.778C295.386 120.63 295.015 121.297 294.509 121.766C294.002 122.248 293.336 122.544 292.533 122.631L294.929 127.447H293.027L290.717 122.705H290.52V122.68L290.544 122.668Z" fill="#2D2E35"/>
<path d="M295.915 127.423L298.459 116.852H304.214L303.856 118.321H299.768L299.138 120.964H303.226L302.856 122.471H298.78L297.595 127.448H295.915V127.423Z" fill="#2D2E35"/>
<path d="M306.141 123.286H309.019L308.537 120.877C308.512 120.717 308.5 120.556 308.475 120.346C308.463 120.149 308.45 119.926 308.438 119.679C308.315 119.914 308.216 120.124 308.092 120.322C307.994 120.519 307.87 120.704 307.771 120.865L306.141 123.273H306.153L306.141 123.286ZM309.784 127.447L309.266 124.73H305.19L303.35 127.447H301.584L309.216 116.456L311.575 127.447H309.809H309.784Z" fill="#2D2E35"/>
<path d="M322.468 119.421C322.085 119.001 321.665 118.704 321.184 118.494C320.702 118.284 320.171 118.186 319.59 118.186C318.467 118.186 317.454 118.556 316.577 119.297C315.688 120.038 315.107 121.001 314.823 122.175C314.552 123.311 314.663 124.249 315.182 125.003C315.688 125.744 316.478 126.114 317.503 126.114C318.121 126.114 318.726 126.015 319.319 125.793C319.912 125.571 320.541 125.225 321.147 124.78L320.677 126.732C320.146 127.053 319.59 127.312 319.035 127.473C318.454 127.646 317.874 127.72 317.256 127.72C316.466 127.72 315.762 127.584 315.169 127.324C314.576 127.065 314.07 126.67 313.687 126.164C313.304 125.657 313.057 125.064 312.959 124.373C312.86 123.694 312.897 122.965 313.082 122.175C313.267 121.397 313.576 120.668 314.008 119.989C314.441 119.309 314.972 118.704 315.601 118.198C316.244 117.679 316.923 117.284 317.639 117.025C318.355 116.765 319.121 116.617 319.887 116.617C320.492 116.617 321.048 116.704 321.554 116.889C322.06 117.074 322.517 117.346 322.95 117.716L322.443 119.445H322.468V119.421Z" fill="#2D2E35"/>
<path d="M322.615 127.423L325.147 116.852H330.902L330.544 118.321H326.456L325.814 120.976H329.902L329.531 122.483H325.443L324.616 125.904H328.704L328.333 127.448H322.578H322.59L322.615 127.423Z" fill="#2D2E35"/>
<path d="M292.05 107.626H280.54L296.57 49.7549H308.092L292.062 107.626H292.05Z" fill="#2D2E35"/>
<path d="M286.073 51.595C285.27 50.4958 284.048 49.9277 282.368 49.9277H219.013L215.877 61.2649H273.513L270.166 73.38H224.052V73.3553H212.542L202.983 107.885H214.506L220.915 84.7171H272.747C274.365 84.7171 275.884 84.1738 277.329 83.0499C278.749 81.9508 279.7 80.58 280.157 78.9498L286.567 55.7815C287.036 54.0896 286.863 52.7064 286.085 51.6073" fill="#2D2E35"/>
<path d="M196.265 104.008C195.623 106.292 193.549 107.885 191.165 107.885H131.725C130.108 107.885 128.897 107.342 128.119 106.243C127.329 105.144 127.168 103.773 127.613 102.143L142.099 49.9277H153.622L140.667 96.5606H186.793L199.748 49.9277H211.271L196.253 104.02H196.265V104.008Z" fill="#2D2E35"/>
<path d="M327.976 49.8662L342.561 78.8759L311.909 107.873L327.989 49.8662H327.976Z" fill="#2D2E35"/>
<path d="M317.75 49.8662L332.323 78.8759L301.658 107.873L317.75 49.8662Z" fill="#2D2E35"/>
<defs>
<filter id="filter0_d_4762_108978" x="0.0943394" y="0.54717" width="469.717" height="186.415" filterUnits="userSpaceOnUse" color-interpolation-filters="sRGB">
<feFlood flood-opacity="0" result="BackgroundImageFix"/>
<feColorMatrix in="SourceAlpha" type="matrix" values="0 0 0 0 0 0 0 0 0 0 0 0 0 0 0 0 0 0 127 0" result="hardAlpha"/>
<feOffset dx="2.45283" dy="4.90566"/>
<feGaussianBlur stdDeviation="3.67925"/>
<feComposite in2="hardAlpha" operator="out"/>
<feColorMatrix type="matrix" values="0 0 0 0 0 0 0 0 0 0 0 0 0 0 0 0 0 0 0.32 0"/>
<feBlend mode="normal" in2="BackgroundImageFix" result="effect1_dropShadow_4762_108978"/>
<feBlend mode="normal" in="SourceGraphic" in2="effect1_dropShadow_4762_108978" result="shape"/>
</filter>
<linearGradient id="paint0_linear_4762_108978" x1="28.3018" y1="88.2354" x2="436.699" y2="88.2354" gradientUnits="userSpaceOnUse">
<stop stop-color="#F2D71A"/>
<stop offset="1" stop-color="#ECB024"/>
</linearGradient>
<linearGradient id="paint1_linear_4762_108978" x1="5" y1="88.8491" x2="460.001" y2="88.8491" gradientUnits="userSpaceOnUse">
<stop stop-color="#F2D71A"/>
<stop offset="1" stop-color="#ECB024"/>
</linearGradient>
<linearGradient id="paint2_linear_4762_108978" x1="28.3018" y1="63.1961" x2="436.699" y2="63.1961" gradientUnits="userSpaceOnUse">
<stop stop-color="#F2D71A"/>
<stop offset="1" stop-color="#ECB024"/>
</linearGradient>
</defs>
</svg>
