<svg width="470" height="187" viewBox="0 0 470 187" fill="none" xmlns="http://www.w3.org/2000/svg">
<g filter="url(#filter0_d_4762_109043)">
<path d="M28.3018 55.6893C28.3018 38.1042 42.5573 23.8486 60.1425 23.8486H404.857C422.442 23.8486 436.698 38.1042 436.698 55.6894V120.782C436.698 138.367 422.442 152.622 404.857 152.622H60.1425C42.5573 152.622 28.3018 138.367 28.3018 120.781V55.6893Z" fill="url(#paint0_linear_4762_109043)"/>
<path d="M6.59204 34.8407C6.59204 18.1348 20.1348 4.59204 36.8407 4.59204H428.159C444.865 4.59204 458.408 18.1348 458.408 34.8407V142.857C458.408 159.563 444.865 173.106 428.159 173.106H36.8407C20.1348 173.106 6.59204 159.563 6.59204 142.857V34.8407Z" stroke="url(#paint1_linear_4762_109043)" stroke-width="3.18407"/>
<g style="mix-blend-mode:screen" opacity="0.4">
<path fill-rule="evenodd" clip-rule="evenodd" d="M436.698 101.317V56.9159C436.698 39.3308 422.442 25.0752 404.857 25.0752H60.1425C42.5573 25.0752 28.3018 39.3308 28.3018 56.9159V87.7491C37.1754 65.1192 53.7723 49.9 72.8047 49.9L387.973 46.9422C410.635 46.9422 429.884 70.5666 436.698 101.317Z" fill="url(#paint2_linear_4762_109043)"/>
</g>
<path d="M226.491 87.3555V112.151H218.396V50.8301H239.435C244.561 50.8301 249.423 52.7016 253.199 56.1587C256.974 59.3654 258.868 64.1576 258.868 69.2239C258.868 74.2903 256.986 78.8202 253.199 82.2892C249.423 85.7462 244.839 87.6178 239.435 87.6178L226.479 87.3436H226.491V87.3555ZM226.491 58.3044V79.6427H239.977C242.945 79.6427 245.912 78.5699 247.806 76.436C252.125 72.4306 252.125 65.7669 248.084 61.7615L247.806 61.4873C245.647 59.3535 242.945 58.0303 239.977 58.2806H226.491V58.3044Z" fill="#2D2E35"/>
<path d="M277.623 68.0121C283.595 68.0121 288.208 69.6397 291.728 72.907C295.248 76.1742 296.887 80.5104 296.887 85.9517V112.029H289.288V106.053H289.009C285.744 110.948 281.131 113.377 275.705 113.377C271.092 113.377 267.013 112.017 263.76 109.296C260.774 106.588 258.868 102.786 258.868 98.705C258.868 94.3568 260.495 90.8223 263.76 88.1137C267.025 85.4052 271.638 84.312 277.064 84.312C281.956 84.312 285.756 85.1258 288.742 87.0206V85.1137C288.742 82.4051 287.649 79.6844 285.477 78.0447C283.304 76.1378 280.585 75.0568 277.598 75.0568C272.986 75.0568 269.453 76.9637 267.013 80.7654L259.949 76.4172C264.294 70.7086 269.999 68 277.598 68H277.611L277.623 68.0121ZM267.305 98.9965C267.305 101.171 268.397 103.078 270.024 104.159C271.93 105.519 274.102 106.333 276.275 106.333C279.541 106.333 282.782 104.972 285.234 102.531C287.953 100.09 289.312 97.1018 289.312 93.8345C286.872 91.9276 283.34 90.8466 278.727 90.8466C275.462 90.8466 272.755 91.6604 270.582 93.2879C268.409 94.6483 267.317 96.5552 267.317 98.9965H267.305Z" fill="#2D2E35"/>
<path d="M339.8 70.4531L313.513 130.547H305.546L315.377 109.636L298.113 70.7253H306.614L319.093 100.63H319.366L331.583 70.7253H339.811V70.4531H339.8Z" fill="#2D2E35"/>
<path d="M195.095 81.3308C195.095 78.9315 194.816 76.5202 194.562 74.1328H160.755V87.7529H179.956C179.146 92.0264 176.703 96.0253 172.919 98.4365V107.246H184.551C191.31 101.098 195.095 92.0264 195.095 81.3428V81.3308Z" fill="#2D2E35"/>
<path d="M160.482 115.831C170.125 115.831 178.175 112.662 184.057 107.398L172.533 98.7058C169.31 100.814 165.309 102.121 160.482 102.121C151.365 102.121 143.339 96.0559 140.656 87.623H128.868V96.5859C135.038 108.434 147.089 115.819 160.482 115.819V115.831Z" fill="#2D2E35"/>
<path d="M141.132 87.1044C139.492 82.8161 139.492 77.9888 141.132 73.4369V64.3213H129.089C123.888 74.2395 123.888 86.0144 129.089 96.2081L141.132 87.0924V87.1044Z" fill="#2D2E35"/>
<path d="M160.206 59.6462C165.297 59.6462 170.125 61.4953 173.874 64.9107L184.057 54.8999C177.624 49.1055 169.059 45.6901 160.482 45.9374C147.089 45.9374 134.762 53.31 128.868 65.1698L140.656 74.1323C143.064 65.6998 151.102 59.6344 160.218 59.6344H160.206V59.6462Z" fill="#2D2E35"/>
</g>
<defs>
<filter id="filter0_d_4762_109043" x="0.0943394" y="0.54717" width="469.717" height="186.415" filterUnits="userSpaceOnUse" color-interpolation-filters="sRGB">
<feFlood flood-opacity="0" result="BackgroundImageFix"/>
<feColorMatrix in="SourceAlpha" type="matrix" values="0 0 0 0 0 0 0 0 0 0 0 0 0 0 0 0 0 0 127 0" result="hardAlpha"/>
<feOffset dx="2.45283" dy="4.90566"/>
<feGaussianBlur stdDeviation="3.67925"/>
<feComposite in2="hardAlpha" operator="out"/>
<feColorMatrix type="matrix" values="0 0 0 0 0 0 0 0 0 0 0 0 0 0 0 0 0 0 0.32 0"/>
<feBlend mode="normal" in2="BackgroundImageFix" result="effect1_dropShadow_4762_109043"/>
<feBlend mode="normal" in="SourceGraphic" in2="effect1_dropShadow_4762_109043" result="shape"/>
</filter>
<linearGradient id="paint0_linear_4762_109043" x1="28.3018" y1="88.2354" x2="436.699" y2="88.2354" gradientUnits="userSpaceOnUse">
<stop stop-color="#F2D71A"/>
<stop offset="1" stop-color="#ECB024"/>
</linearGradient>
<linearGradient id="paint1_linear_4762_109043" x1="5" y1="88.8491" x2="460.001" y2="88.8491" gradientUnits="userSpaceOnUse">
<stop stop-color="#F2D71A"/>
<stop offset="1" stop-color="#ECB024"/>
</linearGradient>
<linearGradient id="paint2_linear_4762_109043" x1="28.3018" y1="63.1961" x2="436.699" y2="63.1961" gradientUnits="userSpaceOnUse">
<stop stop-color="#F2D71A"/>
<stop offset="1" stop-color="#ECB024"/>
</linearGradient>
</defs>
</svg>
