<svg width="26" height="26" viewBox="0 0 26 26" fill="none" xmlns="http://www.w3.org/2000/svg">
<path d="M3.56357 13.0963C3.25845 13.3615 3.04522 13.5569 2.82332 13.7397C2.18708 14.263 1.5127 14.1501 0.867801 13.4153C0.306111 12.7772 0.27664 12.0621 0.853932 11.4993C2.25469 10.1354 3.67799 8.79478 5.09608 7.44877C7.2891 5.36792 9.48559 3.29245 11.6803 1.2134C12.0167 0.894373 12.353 0.591476 12.8505 0.569969C13.3203 0.550254 13.6896 0.745613 14.0328 1.05568C16.5518 3.33726 19.0742 5.61347 21.5931 7.89146C22.6645 8.8593 23.7307 9.83609 24.8072 10.7986C25.2615 11.2054 25.5475 11.6947 25.3204 12.2987C25.0586 12.9887 24.5819 13.5121 23.852 13.7128C23.5122 13.806 23.2938 13.5157 23.0268 13.3741C22.8881 13.5587 22.9488 13.7487 22.9488 13.9207C22.9453 17.2329 22.9471 20.5432 22.9453 23.8554C22.9453 25.0723 22.505 25.5294 21.3435 25.5312C19.9687 25.5312 18.594 25.5347 17.2175 25.5312C16.3698 25.5276 15.978 25.153 15.8843 24.2855C15.8011 23.5184 15.8479 22.7477 15.8427 21.9788C15.8341 20.3066 15.8289 18.6344 15.8479 16.9622C15.8531 16.5231 15.7058 16.3815 15.2845 16.3869C13.8456 16.4084 12.405 16.4102 10.9661 16.3869C10.5275 16.3797 10.42 16.5392 10.4235 16.9676C10.4408 19.2922 10.4321 21.6168 10.4304 23.9414C10.4304 25.0705 9.98833 25.5312 8.91003 25.5329C7.59942 25.5347 6.28881 25.5365 4.97819 25.5329C4.05418 25.5294 3.57224 25.0347 3.5705 24.0776C3.56703 20.6328 3.56877 17.1863 3.56877 13.7415C3.56877 13.5641 3.56877 13.3866 3.56877 13.0945L3.56357 13.0963Z" fill="url(#paint0_linear_5012_111397)"/>
<defs>
<linearGradient id="paint0_linear_5012_111397" x1="0.433594" y1="13.0518" x2="25.4001" y2="13.0518" gradientUnits="userSpaceOnUse">
<stop stop-color="#F2D71A"/>
<stop offset="1" stop-color="#ECB024"/>
</linearGradient>
</defs>
</svg>
