<svg width="20" height="22" viewBox="0 0 20 22" fill="none" xmlns="http://www.w3.org/2000/svg">
<path d="M5.8956 21.155C5.52006 20.9281 5.25037 20.5827 4.94792 20.2818C3.91707 19.258 2.89629 18.2244 1.873 17.1957C1.44201 16.7616 1.01354 16.3249 0.580025 15.8957C0.353187 15.6712 0.247329 15.4171 0.360748 15.1112C0.474167 14.8053 0.716128 14.6549 1.04126 14.6499C1.64616 14.6401 2.24855 14.6401 2.85345 14.6376C3.19371 14.6376 3.19371 14.6376 3.19371 14.312C3.19371 12.5457 3.19371 10.777 3.19371 9.01071C3.19371 8.36686 3.45583 8.10784 4.11114 8.10784C5.47469 8.10784 6.83824 8.10784 8.19927 8.10784C8.80669 8.10784 9.07134 8.36686 9.07134 8.96138C9.07134 10.7276 9.07134 12.4964 9.07134 14.2626C9.07134 14.6549 9.02345 14.6351 9.462 14.6351C10.0089 14.6351 10.5584 14.6302 11.1053 14.6351C11.5565 14.6401 11.811 14.798 11.9219 15.1211C12.0253 15.4171 11.9194 15.6564 11.7077 15.8686C10.629 16.9515 9.55022 18.0369 8.47147 19.1199C7.89682 19.6971 7.32216 20.2694 6.75254 20.8491C6.63408 20.97 6.50806 21.0761 6.35684 21.1501L5.89308 21.1501L5.8956 21.155Z" fill="white"/>
<path d="M10.984 9.57082C10.984 8.65069 10.9789 7.72808 10.989 6.80795C10.989 6.59827 10.9235 6.53413 10.7118 6.53906C10.122 6.5514 9.5322 6.54646 8.94242 6.53906C8.50134 6.53413 8.25182 6.38365 8.13588 6.06789C8.02246 5.76447 8.13084 5.51779 8.3476 5.3007C9.40617 4.23749 10.4648 3.17427 11.5233 2.10859C12.1308 1.49681 12.7382 0.885033 13.3431 0.273254C13.6934 -0.0819733 14.1219 -0.0943071 14.4697 0.255986C16.1483 1.93838 17.8219 3.62324 19.5005 5.3081C19.7147 5.52272 19.8029 5.77187 19.6996 6.06049C19.5937 6.35898 19.3669 6.51933 19.0468 6.52426C18.4369 6.5366 17.8244 6.5366 17.2144 6.54153C16.8641 6.54153 16.8641 6.54153 16.8641 6.87702C16.8641 8.64329 16.8641 10.412 16.8641 12.1783C16.8641 12.8147 16.6045 13.0713 15.9593 13.0713C14.5907 13.0713 13.2196 13.0713 11.851 13.0713C11.2562 13.0713 10.9865 12.8098 10.9865 12.2301C10.9865 11.342 10.9865 10.4564 10.9865 9.56836L10.984 9.57082Z" fill="white"/>
</svg>
